<svg width="100" height="100" viewBox="0 0 100 100" fill="none" xmlns="http://www.w3.org/2000/svg">
<g clip-path="url(#clip0_102_5)">
<path d="M100 0H0V100H100V0Z" fill="white"/>
<path d="M0 0V100H100V84.2H86.2L81.1 78.234L75.8 84.2H36.6V52.434H23.666L39.834 15.834H55.566L59.366 24.134V15.834H78.9L82.166 24.534L85.366 15.834H100V0H0ZM88.7 21L83.566 34.534L82.2 38.202L80.8 34.534L75.634 21H64.334V47.668H71.134V30.302L71.1 26.8L72.434 30.302L78.934 47.668H85.4L91.934 30.302L93.2 26.834V47.668H100V21H88.7ZM43.5 21L31.7 47.668H39.432L41.5 42.534H54.434L56.5 47.668H64.334L52.6 21H43.5ZM46.632 30.034L47.966 26.702L49.3 30.034L52.066 36.766H43.866L46.632 30.034ZM89.234 52.468L81.2 61.1L73.2 52.468H64.334H42.066V79.034H64.334V73.268H48.866V68.634H64.034V62.902H48.866V58.234H64.334V52.468L76.766 65.8L64.334 79.034H72.934L81.034 70.368L89.1 79.034H97.932L85.466 65.7L97.932 52.468H89.234ZM92.466 65.668L100 73.334V58.1L92.466 65.668Z" fill="#006FCF"/>
</g>
<defs>
<clipPath id="clip0_102_5">
<rect width="100" height="100" fill="white"/>
</clipPath>
</defs>
</svg>
