<svg width="100" height="100" viewBox="0 0 100 100" fill="none" xmlns="http://www.w3.org/2000/svg">
<g clip-path="url(#clip0_102_6)">
<path d="M49.9998 0C22.3653 0 0 22.3653 0 49.9999C0 77.6345 22.3653 100 49.9998 100C77.6344 100 99.9995 77.6345 99.9995 49.9999C100.117 22.3653 77.6344 0 49.9998 0Z" fill="#EF6719"/>
<path d="M44.8476 68.1497C42.974 68.1497 41.3346 66.9787 40.7492 65.2223L38.1731 59.2504H21.5455L18.8523 65.4565C18.2669 67.0958 16.6275 68.0326 14.9882 68.0326C12.8805 68.0326 11.124 66.276 11.124 64.1684C11.124 64.1684 11.124 64.1684 11.124 64.0513C11.124 63.4659 11.3582 62.8803 11.5924 62.2949L24.8242 32.4353C25.644 30.4448 27.5173 29.0396 29.7422 29.1567H30.2105C32.3182 29.1567 34.3089 30.4448 35.0114 32.4353L48.2433 62.2949C49.2973 64.1684 48.4775 66.5104 46.6039 67.5641C46.0185 68.0326 45.433 68.1497 44.8476 68.1497Z" fill="#612E87"/>
<path d="M24.5898 51.9908H35.1286L29.8593 39.4614L24.5898 51.9908Z" fill="#EF6719"/>
<path d="M84.7775 51.2878C84.7775 62.7633 78.3371 68.3839 68.1499 68.3839C57.9627 68.3839 51.7565 62.6462 51.7565 51.522V33.7235C51.6394 31.3817 53.3959 29.508 55.7378 29.2738C58.0797 29.1568 59.9533 30.9132 60.1875 33.2552C60.1875 33.3722 60.1875 33.6064 60.1875 33.7235V51.2878C60.1875 57.4941 63.2319 60.6557 68.3841 60.6557C73.5362 60.6557 76.5809 57.6112 76.5809 51.522V33.7235C76.4638 31.3817 78.2201 29.508 80.562 29.2738C82.9039 29.1568 84.7775 30.9132 85.0116 33.2552C85.0116 33.3722 85.0116 33.6064 85.0116 33.7235L84.7775 51.2878Z" fill="#612E87"/>
</g>
<defs>
<clipPath id="clip0_102_6">
<rect width="100" height="100" fill="white"/>
</clipPath>
</defs>
</svg>
