<svg width="100" height="100" viewBox="0 0 100 100" fill="none" xmlns="http://www.w3.org/2000/svg">
<g clip-path="url(#clip0_102_7)">
<path d="M50.0318 7C55.1332 15.7637 60.2789 24.5017 65.3251 33.2986C57.1687 47.6865 49.13 62.1442 40.6975 76.3738C37.4622 81.836 34.3152 87.3497 31.1166 92.8302C20.7444 92.8928 10.3722 92.8891 0 92.8744C0.31654 92.164 0.6294 91.45 1.01219 90.7727C17.3435 62.8436 33.7373 34.9512 50.0318 7Z" fill="#AE285D"/>
<path d="M50.0347 60.4288C60.4437 60.4251 70.8527 60.3515 81.2617 60.5245C87.46 71.3311 93.8571 82.0198 100 92.8558C89.5911 92.9073 79.1858 92.8668 68.7768 92.8595C62.5822 82.0161 56.1115 71.3384 50.0347 60.4288Z" fill="#AE285D"/>
</g>
<defs>
<clipPath id="clip0_102_7">
<rect width="100" height="100" fill="white"/>
</clipPath>
</defs>
</svg>
