<svg width="100" height="100" viewBox="0 0 100 100" fill="none" xmlns="http://www.w3.org/2000/svg">
<path d="M30.1327 21.7214C52.9674 -0.945481 80.6698 -6.82827 91.7554 8.62144C102.841 24.0712 93.098 55.2979 70.2636 77.9649C47.4287 100.799 19.7266 106.674 8.4729 91.0562C-2.43675 75.4469 7.30638 44.3799 30.1327 21.7214Z" fill="#F06321"/>
<path d="M45.2451 9.62838C42.7275 11.4746 40.2099 13.6565 37.6923 16.0147C17.7109 35.8199 9.31036 63.0185 19.2214 76.6221C29.4596 90.2173 53.9727 85.1819 74.4578 65.2004C85.5434 54.4586 92.9284 42.03 95.9496 30.449C96.7889 21.8891 95.6141 14.3279 91.7536 8.62131C83.0261 -3.4632 64.2194 -2.46455 45.2451 9.62838Z" fill="#AE282E"/>
<path d="M74.122 12.1463V12.6498C73.9548 15.5031 72.2756 19.0278 69.255 22.0489C64.7229 26.4127 58.6808 28.0911 56.1548 25.5819C53.3015 22.8965 54.9884 17.0137 59.52 12.3141C64.2197 7.78242 70.2621 6.27188 72.7795 8.9573C73.6188 9.7965 74.122 10.8036 74.122 12.1463ZM56.6667 89.2106C45.9165 97.2666 34.839 101.303 24.0889 99.6247C28.6206 99.7924 32.3214 94.7492 35.3425 88.0352C38.3637 81.154 40.0421 74.7761 41.5526 68.7252C43.7345 59.1584 43.9025 52.4449 42.7275 50.9343C40.8813 48.5761 36.8531 49.088 32.1451 51.7735C29.7954 53.1162 26.7743 52.277 30.3073 47.9132C33.9998 43.5493 48.2663 33.1347 53.3015 31.4564C59.0164 29.9458 65.3945 32.1277 63.2126 38.3378C61.6938 42.8695 41.8884 94.5814 56.6667 89.2106Z" fill="white"/>
</svg>
