<svg width="100" height="100" viewBox="0 0 100 100" fill="none" xmlns="http://www.w3.org/2000/svg">
<g clip-path="url(#clip0_102_11)">
<path fill-rule="evenodd" clip-rule="evenodd" d="M77.9194 76.4803L78.3079 77.1223L78.4493 78.2066V79.3929C78.3763 82.4331 76.8873 83.6836 74.0634 84.4556H73.6412H73.3769H72.9964L72.8572 84.322L72.5824 84.1907L72.3285 83.9282L72.1882 83.6533V83.3907L72.0478 83.0022V82.588L72.1882 82.3336V82.0673L72.4514 81.7902L72.5824 81.5308L73.1286 80.8734L73.5172 80.724L74.0634 80.6026L74.591 80.2043L75.2521 79.7913L75.3761 79.6758L75.5073 79.3929L75.6487 79.017L75.7809 78.6015L75.6487 78.2066L75.5073 77.5207L75.2521 77.0168L74.8473 76.21L73.6412 74.3582C71.8286 70.3613 74.4924 70.3613 73.1286 66.8841L72.7309 65.8269L71.9306 64.6397L70.4694 62.5082L69.254 60.7755L68.8655 59.975L68.4701 59.3208C67.2709 56.1505 68.6521 52.7821 69.123 49.6064V48.1426V46.8034L68.9897 45.6064V45.3356L69.123 44.9317L69.254 44.8072L69.3944 44.6768H69.5184L69.6588 44.8072L69.7898 44.9317L69.9232 45.0613L70.1957 45.9962V46.6635L70.4694 47.607V48.2582V48.9423L70.3187 50.5187C69.4164 55.1237 69.3422 58.1912 72.9964 61.451L73.6412 61.9708L74.1863 62.3859C77.1064 65.5394 76.0871 67.1504 76.0535 70.7565V71.8214L76.4488 73.0303L76.7237 74.0874L77.2595 75.2909L77.9194 76.4803Z" fill="white"/>
<path fill-rule="evenodd" clip-rule="evenodd" d="M74.5909 54.1208V54.9154L74.7231 55.6094C75.1939 60.3009 79.9697 62.0476 82.695 65.15L83.2412 66.0931L83.5125 67.1593C84.3557 69.6187 83.6703 75.097 80.183 74.8697L79.9024 74.7384L79.7795 74.6329L79.9024 74.4904L80.0601 74.3581C82.7866 71.6357 81.7127 67.6144 79.7795 64.7664L78.9874 63.8383L78.0526 62.9057L76.9788 62.1156C75.7471 60.6147 75.6161 60.7718 74.8472 58.7797L74.5909 57.976L74.3346 57.3164C74.083 55.7702 73.8058 54.2059 74.0633 52.6516L74.1862 52.379L74.3346 52.2645H74.4517L74.5909 52.5194V52.7851L74.7231 53.3262L74.5909 54.1208Z" fill="white"/>
<path fill-rule="evenodd" clip-rule="evenodd" d="M64.8759 62.7653L64.6046 63.3109V63.9796C63.4878 68.178 67.2255 71.0426 68.7412 74.488L68.8654 75.4063V76.3321C68.6833 78.6661 66.8092 83.1937 63.6699 82.0672L63.5457 81.9382L63.4043 81.7901L63.5457 81.6747V81.5307H63.8102L64.1987 81.2681C67.2881 79.4254 67.0887 75.2998 65.7933 72.3623L65.2714 71.3052L64.7356 70.0796L64.3471 69.5589L64.0665 68.892L63.9331 68.2232L63.8102 67.4363V66.7708V65.9604V64.6293L64.0665 63.4263L64.3471 62.3768L64.6046 61.5868L64.7356 61.1716L64.9989 61.0403H65.1474H65.2714V61.1716V61.5868L65.1474 62.1156L64.8759 62.7653Z" fill="white"/>
<path d="M64.8759 62.7653L64.6046 63.3109V63.9796C63.4878 68.178 67.2255 71.0426 68.7412 74.488L68.8654 75.4063V76.3321C68.6833 78.6661 66.8092 83.1937 63.6699 82.0672L63.5457 81.9382L63.4043 81.7901L63.5457 81.6747V81.5307H63.8102L64.1987 81.2681C67.2881 79.4254 67.0887 75.2998 65.7933 72.3623L65.2714 71.3052L64.7356 70.0796L64.3471 69.5589L64.0665 68.892L63.9331 68.2232L63.8102 67.4363V66.7708V65.9604V64.6293L64.0665 63.4263L64.3471 62.3768L64.6046 61.5868L64.7356 61.1716L64.9989 61.0403H65.1474H65.2714V61.1716V61.5868L65.1474 62.1156L64.8759 62.7653Z" stroke="white" stroke-width="0.557333" stroke-miterlimit="2.414"/>
<path fill-rule="evenodd" clip-rule="evenodd" d="M82.0422 59.3229L80.4569 56.9301L79.7785 55.9794L79.5222 55.3205C79.3691 52.6642 79.8167 53.7246 80.0591 52.1232V51.8561L79.7785 51.3201C78.9145 49.706 76.0859 47.8496 75.1187 46.1373L74.5899 44.9498L74.1851 43.7395L73.9127 43.0735V42.4134L73.7885 41.7541V41.09L73.9127 40.4126L74.0623 39.8761L74.3336 39.2092L74.5899 38.8113L75.1187 38.435L75.6569 38.0284L76.0523 37.7332H76.4477L77.1007 37.4838L77.3743 37.3534H77.6539L77.9183 37.0872L78.1839 36.8417L78.4482 36.3048L78.8611 35.3453L78.976 35.0995L79.1174 34.8083H79.3819L79.6462 34.6762L80.7282 34.8083V34.6762V34.5707L80.5706 34.1473C78.1271 29.8072 76.1764 24.8523 76.5811 19.7873V18.7219L76.8456 17.5086L77.1007 16.3301L77.5228 15.2647L77.9183 14.0595L78.5805 12.9937L79.2416 11.9283L80.0591 10.7322L80.7282 9.66698L81.2408 8.74205L81.3811 8.34333L81.5053 7.94346V7.66064V7.54474L81.3811 7.27816L81.2408 7.13096L80.9845 6.99999H80.8442L80.5706 7.13096H80.182L79.2416 7.66064L78.4482 8.19729L77.7873 8.74205L77.1007 9.40851L76.3167 9.94516L75.7797 10.6012L75.259 11.2607L74.714 11.9283L74.3336 12.7365L73.3757 14.1722C71.8275 18.1606 70.7652 22.5862 71.5167 26.8303V27.2288V27.3755V27.5031H71.3925L71.2522 27.3755L70.1946 26.4469L68.9885 25.6427C61.455 21.3855 51.0292 24.725 52.4985 34.6762L52.6065 35.0995L53.0274 36.0118L53.4159 36.8417L53.6815 37.3534V37.6069L53.548 37.8822L53.2674 38.435L52.8871 38.6722L52.3501 39.0856L51.8131 39.3386L51.2843 39.6139L50.3601 39.8761L50.0863 40.0328H49.9553L49.8219 40.1419H49.6816L48.7642 40.4126L47.55 40.6793L46.4855 40.8111H45.2782L44.1057 40.9518L42.7674 40.8111L41.4372 40.6793L40.0907 40.5489L37.2983 40.1419L34.3815 39.6139L28.5157 38.1443L25.5839 37.6069L22.6661 36.9549L19.7181 36.5588L18.2558 36.4184C5.46646 34.3684 -1.05236 42.7307 0.138663 54.774L1.06417 60.9248L1.87359 65.9594L2.1369 68.221C3.07163 73.4209 1.10592 78.0549 1.06417 83.2593V85.2841L1.19633 86.9818C1.34478 88.5145 2.06728 91.1128 3.72335 88.9907L3.98893 88.4701L4.1374 87.7805L4.4006 86.9818L4.66618 85.1278L4.78918 83.5422V82.7386L5.07797 79.9392C6.68185 68.3478 -3.8681 48.9154 7.20135 42.0163L8.11984 41.4698L9.4663 41.09L11.0609 40.8111C14.5957 40.0241 18.4007 41.1665 21.4612 42.925L22.7833 43.7395L24.2688 44.6591C29.4087 48.2729 36.1164 48.9191 42.2316 49.068H44.3527L46.3613 48.9358L48.2273 48.8058L49.8219 48.6691L51.2843 48.3906L52.6065 48.1408C54.259 47.4743 56.9762 46.62 58.7448 47.3254L59.5298 47.8627L60.3475 48.3906L61.0085 49.068L61.5374 49.7264L62.0743 50.6531L62.3387 51.4472L62.7261 52.2464L62.9997 53.049L63.263 53.8731L63.4033 54.655V55.1838V55.7212L63.263 56.5068L63.132 57.3231L62.7261 58.7697L62.4871 58.9077L62.1972 59.1658C60.4553 60.4517 59.233 64.1923 59.1414 66.3579L58.8689 67.9674V68.6203L58.6125 69.1559L58.4641 69.6843L58.209 70.0818L57.9352 70.5051L57.5386 70.6101L57.1339 70.8809L56.8776 71.173L56.0856 71.4355H55.2749L54.6139 71.5654H53.9447L53.2674 71.4355H52.4985L51.144 71.0335L50.0863 70.6101L49.8219 70.5051L49.9553 72.3511L50.3601 73.8315L50.6407 74.6229L51.021 75.1423L51.2843 75.6879L51.5499 75.9459L51.681 76.1995L51.8131 76.4824L51.9616 77.4029L52.2272 78.8662C52.7641 81.5547 52.3918 84.853 52.4985 87.6519L52.3501 88.8549L52.2272 89.5191L52.4985 89.6676L53.2674 90.0606L53.548 90.3015L53.9447 90.5877L54.0851 90.9955L54.2173 91.2613V91.3922L54.4735 91.6448H54.6139H54.746H58.0756H60.2153H61.1395V91.2613L61.0085 90.8556L60.8682 90.4395L60.6038 90.2041L60.2153 89.5191L59.6783 88.9907L58.6125 88.1876L58.209 87.9335L58.0756 87.6519L57.9352 87.5279L57.8112 87.2521L57.6802 86.9818V86.4535L57.9352 85.8042L58.7448 85.9179H59.4046L60.7441 86.0664H62.0743H63.132L63.263 87.7805L63.132 88.9907V89.5191V89.6676V89.7904L63.4033 89.9039C63.9913 90.3825 64.8831 90.7547 64.8749 91.6448L64.9979 91.9033H65.2704H65.4038H68.5999H70.7153H71.6488V91.3922L71.5167 90.8556L71.2522 90.4395L70.8463 90.0606L70.1946 89.2524L69.5173 88.724L69.2529 88.4701L68.9885 88.0563L68.5999 87.6519L68.4689 87.2521V86.9818V86.5866V86.3412L68.7403 85.5299L69.9221 86.4535L70.7153 86.8695L70.9879 86.9818C73.6355 87.6089 74.2559 87.7003 76.7226 86.9818L77.7873 86.4535L78.8611 85.8042C81.0588 84.3776 81.1121 82.2551 82.0422 79.9392L82.3148 79.5431L82.4388 79.2736L82.7032 79.0066C88.7917 76.5662 90.1926 69.6684 86.1638 64.5174L85.4947 63.5584L84.314 61.973L82.0422 59.3229Z" fill="#96202A"/>
<path fill-rule="evenodd" clip-rule="evenodd" d="M80.7291 44.3948L81.1084 44.818L81.3891 45.2019L81.5062 45.6085V45.9961V46.8034V47.21V47.7224L81.7695 47.3231L82.0431 46.8034L82.4397 46.2669L82.7042 45.6085L82.8352 44.818V44.535L82.7042 44.1366V43.883L82.58 43.5956L82.3157 43.3457C81.759 43.16 79.7492 41.8045 79.1183 42.6693V43.1976L78.9873 43.7526L80.7291 44.3948Z" fill="#96202A"/>
<path d="M80.7291 44.3948L81.1084 44.818L81.3891 45.2019L81.5062 45.6085V45.9961V46.8034V47.21V47.7224L81.7695 47.3231L82.0431 46.8034L82.4397 46.2669L82.7042 45.6085L82.8352 44.818V44.535L82.7042 44.1366V43.883L82.58 43.5956L82.3157 43.3457C81.759 43.16 79.7492 41.8045 79.1183 42.6693V43.1976L78.9873 43.7526L80.7291 44.3948Z" stroke="#98212B" stroke-width="0.28" stroke-miterlimit="2.414"/>
<path fill-rule="evenodd" clip-rule="evenodd" d="M78.184 77.0077L78.4483 77.4051L78.5806 78.0739L78.7128 78.6014L78.8612 79.1302V79.7912L78.7128 80.3354L78.5806 80.8733L78.4483 81.5307L78.184 82.2076L77.7781 83.0021L77.2585 83.6532L76.5812 84.3301C75.0817 84.7829 75.6396 85.3497 73.6472 85.2727L73.2528 85.1165L72.8562 84.8585L72.5906 84.5882L72.3355 84.1906L72.1871 83.6532L72.3355 83.2648L72.4585 82.8473L72.5906 82.4738L72.8562 82.0672L73.2528 81.6679L73.7886 81.4017L74.7222 80.8733L75.1188 80.7239L75.3751 80.3354L75.6477 80.0742L75.7798 79.6757L75.9283 79.3928V79.0169V78.6014L75.7798 78.2065L75.5062 77.4051L75.1188 76.6016L74.3337 75.1573L73.9127 74.6284C73.1067 72.8867 73.1184 72.5833 73.3758 70.608L73.6472 69.8261L73.7886 69.4207C73.9788 68.0671 73.2679 66.419 72.5906 65.2984L71.9296 64.5084L70.8639 63.0278L69.7887 61.3037C66.0811 56.5362 70.0265 51.1878 69.2529 44.8071L69.3934 44.6767L69.5174 44.5327L69.6577 44.3947L69.9222 44.6767L70.0543 44.9316C72.2439 49.9703 67.6549 55.4315 71.7893 60.1076L72.1871 60.5218L72.9954 61.3037C78.9064 66.0373 75.1896 68.7734 76.5812 73.1524L76.9778 74.488L77.5229 75.6856L78.184 77.0077Z" fill="white"/>
<path fill-rule="evenodd" clip-rule="evenodd" d="M75.6477 54.1211V55.4567L75.7799 56.1213C77.6517 62.2041 81.7281 61.7772 83.6462 65.1503L84.1658 66.0934L84.5775 67.1596C85.2467 69.6022 84.8581 74.5608 81.5054 74.87H81.248L80.9847 74.7387L80.8443 74.6332V74.4906C83.2403 72.6637 83.049 69.4174 82.0343 66.8924L81.5054 65.8353L80.7284 64.7667C76.9118 60.2392 75.3125 60.9328 74.9878 53.863V52.9258V52.5196L75.1188 52.2648H75.2511H75.3751L75.5063 52.3793L75.6477 52.6519V53.1965V54.1211Z" fill="white"/>
<path fill-rule="evenodd" clip-rule="evenodd" d="M97.3595 12.1941L97.0904 11.6656L96.6903 10.8786L96.426 10.7325L96.3018 10.4683H96.0201H95.889L95.766 10.5911V10.7325L95.6315 11.2611L95.766 11.9263V12.7305L96.0201 14.4636L96.3018 16.0573L96.426 17.5112V18.8486V20.0435L96.3018 21.2619L96.0201 22.3186L95.889 23.3789L95.766 24.1662C94.6087 27.7766 91.7198 30.9585 88.3138 32.5532L86.6937 33.2332L84.9668 33.7702L86.6937 35.2298L88.1816 36.4166C90.5776 39.0262 93.1706 43.3582 90.1716 46.5329L89.238 47.869L88.8345 48.6632L88.4366 49.479L88.1816 50.3895L87.8997 51.3222L87.5124 53.3265L87.2306 55.1783L86.9824 56.1214L86.8502 56.5063L86.6937 56.7878L86.5707 56.9205L86.4374 57.0414L86.0488 57.1944H85.7706L85.3647 57.0414H85.2312L84.9668 57.1944V57.3243C85.0538 58.0864 85.4795 59.9979 86.4374 59.9857H86.5707V59.8408H86.6937L86.9824 59.4659L87.0903 58.78L87.5124 57.5793L87.7768 56.3917L88.1816 53.9808L88.4366 51.7292V51.4381L88.8345 50.6635L89.3714 49.9911L89.9072 49.3242L90.4442 48.7958L91.6351 47.7227L92.4272 46.8082L93.0964 45.9964L93.7574 45.0615L94.0311 44.5245L94.2944 44.0042L94.4428 43.46V43.0843L94.2944 42.5641L94.1622 41.8744L93.7574 40.1404L92.8309 37.3433L93.8908 36.0326L94.0311 35.7663C96.0293 33.1078 97.9614 30.7607 98.9541 27.4935L99.3507 26.4364L99.6232 25.2307C100.168 21.8621 100.156 20.4582 99.3507 17.1145L98.9541 16.0573L98.2931 14.1857L97.3595 12.1941Z" fill="#96202A"/>
<path d="M97.3595 12.1941L97.0904 11.6656L96.6903 10.8786L96.426 10.7325L96.3018 10.4683H96.0201H95.889L95.766 10.5911V10.7325L95.6315 11.2611L95.766 11.9263V12.7305L96.0201 14.4636L96.3018 16.0573L96.426 17.5112V18.8486V20.0435L96.3018 21.2619L96.0201 22.3186L95.889 23.3789L95.766 24.1662C94.6087 27.7766 91.7198 30.9585 88.3138 32.5532L86.6937 33.2332L84.9668 33.7702L86.6937 35.2298L88.1816 36.4166C90.5776 39.0262 93.1706 43.3582 90.1716 46.5329L89.238 47.869L88.8345 48.6632L88.4366 49.479L88.1816 50.3895L87.8997 51.3222L87.5124 53.3265L87.2306 55.1783L86.9824 56.1214L86.8502 56.5063L86.6937 56.7878L86.5707 56.9205L86.4374 57.0414L86.0488 57.1944H85.7706L85.3647 57.0414H85.2312L84.9668 57.1944V57.3243C85.0538 58.0864 85.4795 59.9979 86.4374 59.9857H86.5707V59.8408H86.6937L86.9824 59.4659L87.0903 58.78L87.5124 57.5793L87.7768 56.3917L88.1816 53.9808L88.4366 51.7292V51.4381L88.8345 50.6635L89.3714 49.9911L89.9072 49.3242L90.4442 48.7958L91.6351 47.7227L92.4272 46.8082L93.0964 45.9964L93.7574 45.0615L94.0311 44.5245L94.2944 44.0042L94.4428 43.46V43.0843L94.2944 42.5641L94.1622 41.8744L93.7574 40.1404L92.8309 37.3433L93.8908 36.0326L94.0311 35.7663C96.5744 32.439 98.0484 30.5397 99.3507 26.4364L99.6232 25.2307L99.7555 24.1662C100.305 21.8377 99.8796 18.2396 98.9541 16.0573L98.2931 14.1857L97.3595 12.1941Z" stroke="#98212B" stroke-width="0.84" stroke-miterlimit="2.414"/>
<path fill-rule="evenodd" clip-rule="evenodd" d="M65.6752 62.6417L65.4039 63.5585L65.2705 64.5062V65.4412C65.3795 69.7818 68.6464 71.4434 69.6576 75.1505V75.688V76.0673C69.6507 78.3809 68.3112 81.8514 65.6752 82.3253H65.2705H64.875L64.6036 82.2022L64.3462 81.936V81.7902L64.4691 81.6657L64.6036 81.5434L65.1464 81.2614L65.5267 81.0147L65.7923 80.7226L66.2041 80.3468L66.4615 80.0639L66.7329 79.6758L67.1295 78.8663L67.3939 77.9336L67.5354 77.1245V76.0673V75.1505C66.4406 71.0848 63.103 67.3685 64.998 62.9125L65.4039 61.5769L65.6752 61.1703V61.0404L65.9326 60.9159H66.0637L66.2041 61.1703L66.0637 61.3152V61.709L65.7923 62.3837L65.6752 62.6417Z" fill="white"/>
<path d="M65.6752 62.6417L65.4039 63.5585L65.2705 64.5062V65.4412C65.3795 69.7818 68.6464 71.4434 69.6576 75.1505V75.688V76.0673C69.6507 78.3809 68.3112 81.8514 65.6752 82.3253H65.2705H64.875L64.6036 82.2022L64.3462 81.936V81.7902L64.4691 81.6657L64.6036 81.5434L65.1464 81.2614L65.5267 81.0147L65.7923 80.7226L66.2041 80.3468L66.4615 80.0639L66.7329 79.6758L67.1295 78.8663L67.3939 77.9336L67.5354 77.1245V76.0673V75.1505C66.4406 71.0848 63.103 67.3685 64.998 62.9125L65.4039 61.5769L65.6752 61.1703V61.0404L65.9326 60.9159H66.0637L66.2041 61.1703L66.0637 61.3152V61.709L65.7923 62.3837L65.6752 62.6417Z" stroke="white" stroke-width="0.56" stroke-miterlimit="2.414"/>
<path fill-rule="evenodd" clip-rule="evenodd" d="M27.319 87.2545L26.7809 86.588L26.3773 86.0769L26.121 85.404C25.4437 84.0073 25.6711 82.39 26.237 81.0023L26.5165 80.3354L26.7809 79.946L27.1857 79.5453L27.5835 79.1221L27.9801 78.8767L28.3848 78.6014L29.0446 78.2043L29.1862 78.0739L29.4494 77.9336L29.5828 77.5206L29.715 77.1299V76.7541L29.4494 76.2017L29.0446 75.6901C27.7191 75.02 28.0705 74.891 26.237 75.5452L25.4438 76.2017L24.5091 77.1299C19.5722 83.5907 21.3292 81.0191 21.3292 87.6623V88.3207L21.1969 88.9812V89.118L21.4613 89.2643L22.2546 89.6581L22.6662 89.9144L22.9318 90.1937L23.1963 90.4428V90.867L23.3284 91.1105L23.4526 91.2518C25.1423 91.2518 26.8262 91.2518 28.5159 91.2518H29.0446H30.3842L30.2508 90.9983C30.1731 89.8935 29.3184 88.9211 28.5159 88.1989L27.9801 87.7828L27.319 87.2545Z" fill="#96202A"/>
<path fill-rule="evenodd" clip-rule="evenodd" d="M39.4214 71.5602L39.1651 71.8296L38.4959 72.3579C37.8384 72.822 37.0916 73.4414 36.2322 73.2929L35.4483 73.1525L34.7698 72.7564C33.2842 72.1723 31.7175 71.7286 30.1194 71.4379L28.6489 70.7642L26.3769 69.9573L26.914 68.0943L27.3186 66.7709L27.7072 65.451C29.0246 60.8171 23.8314 56.8999 20.4021 54.9123L19.8594 54.6497L19.3213 54.5102C15.5174 53.2462 15.4374 58.2138 16.5287 60.5219L17.0575 62.1156L17.4611 63.5563L17.7266 64.8964L17.8496 66.2253C17.9865 69.8677 16.1855 73.9304 13.1911 76.0651L12.7956 76.21L11.9849 76.3322L11.1836 76.4803C9.96934 76.8221 10.3706 76.2018 9.19348 77.2876L8.91986 77.6688L8.79573 78.074C8.47333 80.0064 8.69716 83.0149 8.79573 85.0115L8.91986 87.3876V88.3208V89.1217L8.79573 89.9159L9.19348 90.0548C12.3978 91.6599 9.33157 92.2616 13.1911 92.0623L17.9911 91.9093L17.8496 91.3909L17.7266 91.0052L17.4611 90.4442L17.0575 90.0548L16.4058 89.2644L15.7192 88.4611L14.6616 87.5361L14.1246 86.981L13.9936 86.5962L13.7361 86.0687L13.5877 85.5309V84.8585V84.3301L13.8533 84.0676L13.9936 83.5242L14.1246 83.0022L14.926 81.6747L15.1823 81.1482L15.6033 80.6026L15.8769 80.3354L16.132 80.0743L17.8496 79.6758L19.1891 79.017L20.5367 78.3448L21.5851 77.8037L22.5093 77.0168L23.32 76.3322L24.649 75.0088L25.1778 73.9516L25.7147 73.1525L25.9792 72.7564L26.2366 72.4951L26.6414 72.2279L27.1853 72.0795H27.4497H27.5831L29.1858 72.7564L31.7209 73.8126L33.0512 74.3582L33.7041 74.633L34.2421 74.8698L34.7698 75.2932L35.3079 75.5376H35.8518L36.2322 75.697H36.637L36.9026 75.5376L37.1658 75.4063L37.4384 75.1619L37.835 74.633L38.6444 73.8126L39.4214 72.7564L40.2217 71.5602H39.4214Z" fill="#96202A"/>
</g>
<defs>
<clipPath id="clip0_102_11">
<rect width="100" height="100" fill="white"/>
</clipPath>
</defs>
</svg>
