<svg width="100" height="100" viewBox="0 0 100 100" fill="none" xmlns="http://www.w3.org/2000/svg">
<path fill-rule="evenodd" clip-rule="evenodd" d="M0 49.7774C0 26.1538 22.3848 7 50.001 7C77.6171 7 100 26.1538 100 49.7774C100 73.4009 77.6152 92.5549 50.001 92.5549C22.3867 92.5549 0 73.4038 0 49.7774Z" fill="#003874"/>
<path fill-rule="evenodd" clip-rule="evenodd" d="M43.9282 20.7381L55.5449 16.92L55.6022 79.3873L43.8872 83.2917L43.9282 20.7381Z" fill="#ED1C24"/>
<path fill-rule="evenodd" clip-rule="evenodd" d="M87.6036 54.0839C86.5136 63.0197 81.4748 72.0475 70.4722 72.0643C64.0487 72.0757 59.0309 67.701 55.556 62.3481V56.1481C59.9044 58.2956 63.9686 60.6008 68.8997 60.671C74.9741 60.76 80.4668 58.4371 82.7383 54.0829L87.6036 54.0839ZM50.8233 59.6949C45.7759 65.7467 40.8982 71.9289 31.759 71.9289C18.8501 71.9289 12.7271 59.5137 12.7271 49.1344C12.7271 39.1607 17.5122 27.3547 30.0883 27.3547C35.5428 27.3547 40.7933 30.6729 43.9231 34.1827L43.9135 42.6487C41.2987 40.8979 35.4418 39.1798 31.6178 39.1181C23.6429 38.9853 16.612 42.4239 16.7341 50.2546C16.817 55.6453 22.1867 59.3096 27.5288 59.3096C35.7107 59.3096 40.6675 51.8747 44.8099 46.2317C46.4708 44.0775 48.1125 41.909 49.7352 39.7262C54.3363 33.3308 59.6603 27.4923 68.7996 27.4923C79.5657 27.4923 85.6096 36.1244 87.3184 45.0107H82.4551C80.5002 42.129 76.7402 40.3654 73.0364 40.3654C64.578 40.3654 59.5239 48.1061 55.2938 53.8051L50.8118 59.6939" fill="white"/>
</svg>
