<svg width="38" height="38" viewBox="0 0 38 38" fill="none" xmlns="http://www.w3.org/2000/svg">
<path fill-rule="evenodd" clip-rule="evenodd" d="M14.5905 0.695475C17.6919 -0.33405 21.1582 -0.218029 24.1815 1.02672C27.0444 2.19127 29.4874 4.35167 30.998 7.04791C32.4115 9.54159 33.0044 12.4847 32.6836 15.3327C32.3376 18.5944 30.7617 21.7021 28.3482 23.9237C26.1751 25.9658 23.3164 27.2401 20.3543 27.5544C20.3312 24.2296 20.386 20.9045 20.327 17.5796C21.2743 17.1028 22.1645 16.4066 22.5801 15.4003C23.3102 13.8222 22.8165 11.8096 21.4514 10.7378C20.1708 9.66819 18.211 9.54583 16.8143 10.4593C15.2805 11.3876 14.5525 13.4234 15.1792 15.1092C15.5485 16.2463 16.4999 17.069 17.5484 17.5776C17.4914 20.9024 17.5442 24.2296 17.521 27.5544C14.5061 27.2338 11.6011 25.9194 9.41119 23.8139C6.90279 21.4573 5.33522 18.1261 5.13698 14.6872C4.9343 11.6429 5.7804 8.53946 7.51243 6.02676C9.20444 3.53941 11.7319 1.63432 14.5905 0.695475Z" fill="#00ACE8"/>
<path fill-rule="evenodd" clip-rule="evenodd" d="M29.2672 31.4063C28.7619 31.4731 28.2042 31.6167 27.8874 32.0505C27.5679 32.4757 27.545 33.0313 27.5525 33.5414C27.5525 34.9799 27.5541 36.418 27.5519 37.856C28.0273 37.8592 28.5023 37.8528 28.9777 37.8597C28.8805 36.7791 28.881 35.6931 28.8361 34.6097C28.8276 34.1274 28.7838 33.6424 28.8399 33.1616C28.8981 32.8149 29.1908 32.55 29.5215 32.4597C30.0535 32.3112 30.6155 32.4479 31.116 32.645C31.2944 32.2204 31.6229 31.8721 31.9894 31.6007C31.1053 31.3657 30.1758 31.3048 29.2672 31.4063ZM24.0151 35.1316C23.6562 35.277 23.2667 35.3736 22.9553 35.614C22.6743 35.8261 22.6129 36.2556 22.7833 36.5547C22.9436 36.8106 23.2683 36.8832 23.5504 36.895C24.1407 36.9163 24.7427 36.7732 25.255 36.4789C25.2656 35.8512 25.2865 35.2241 25.3036 34.5964C24.9003 34.832 24.4467 34.9586 24.0151 35.1316ZM22.0846 31.7551C23.0504 31.4362 24.0862 31.2626 25.1017 31.4031C25.5146 31.4666 25.9553 31.597 26.2314 31.9314C26.5306 32.2872 26.6064 32.7711 26.6043 33.222C26.5968 34.7673 26.5685 36.3122 26.5771 37.8576C26.1038 37.8586 25.631 37.8597 25.1583 37.857C25.1732 37.7176 25.1892 37.5782 25.2069 37.4393C24.7341 37.7994 24.1476 38.0087 23.5515 37.9997C22.9703 37.9879 22.3581 37.865 21.9008 37.4836C21.1198 36.8666 21.1193 35.5018 21.9206 34.9014C22.3565 34.5547 22.9035 34.4089 23.4163 34.2155C23.8554 34.0499 24.3062 33.9116 24.7304 33.7086C24.8907 33.6274 25.0589 33.5446 25.177 33.4052C25.3858 33.1627 25.3319 32.7289 25.0461 32.5697C24.8212 32.4388 24.5536 32.4201 24.3004 32.4079C23.4751 32.3774 22.6749 32.6456 21.9324 32.9821C21.9852 32.5735 22.036 32.1643 22.0846 31.7551ZM16.2519 32.3336C16.8015 31.6659 17.684 31.3619 18.5296 31.355C19.3373 31.3491 20.1412 31.4998 20.9137 31.7295C20.8469 32.1515 20.763 32.5703 20.692 32.9917C19.9591 32.6782 19.1781 32.3753 18.3661 32.4351C17.871 32.4666 17.3779 32.7017 17.098 33.121C16.7732 33.6028 16.7086 34.2054 16.7097 34.7727C16.7225 35.3421 16.84 35.95 17.231 36.3875C17.5558 36.7491 18.0499 36.9089 18.5264 36.9121C19.2267 36.9137 19.9003 36.6685 20.5189 36.3581C20.5675 36.7673 20.715 37.1615 20.9377 37.5072C20.0024 37.8619 18.9864 38.0595 17.9858 37.9313C17.3571 37.849 16.738 37.5707 16.3176 37.0857C15.808 36.4869 15.605 35.6872 15.5526 34.9175C15.5051 34.0174 15.6637 33.0473 16.2519 32.3336ZM33.3457 32.8651C32.9968 33.1728 32.828 33.6322 32.7613 34.082C32.6908 34.5948 32.694 35.1263 32.8382 35.6263C32.9584 36.052 33.2207 36.4516 33.6144 36.669C34.163 36.9756 34.8323 36.9543 35.4258 36.8084C35.6506 36.7294 35.9642 36.6033 35.9589 36.3197C35.9578 35.1215 35.9552 33.9239 35.9546 32.7262C35.57 32.5991 35.1785 32.48 34.7735 32.4447C34.2693 32.3988 33.7276 32.5174 33.3457 32.8651ZM35.9541 29.6366C36.344 29.6355 36.7345 29.636 37.125 29.636C37.1261 32.0062 37.125 34.3758 37.1255 36.746C37.1357 37.0691 36.9343 37.3603 36.6726 37.5333C36.1801 37.8736 35.5674 37.9516 34.984 37.9751C34.1811 37.9965 33.3211 37.9009 32.6609 37.4019C31.9467 36.88 31.6336 35.9842 31.5396 35.1354C31.4504 34.2166 31.5775 33.2214 32.1401 32.4618C32.6176 31.8181 33.3996 31.4656 34.1828 31.3812C34.7885 31.3102 35.3991 31.3817 35.9958 31.4896C35.9856 30.8721 35.9834 30.2541 35.9541 29.6366Z" fill="#00ACE8"/>
<path fill-rule="evenodd" clip-rule="evenodd" d="M1.67948 31.7503C2.14152 31.2423 2.84344 31.0046 3.5192 31.0137C4.28093 31.0175 5.07792 31.2664 5.61264 31.8283C5.38935 32.2316 5.17407 32.6392 4.95829 33.0457C4.60892 32.7097 4.1586 32.4656 3.67464 32.4036C3.37764 32.3652 3.04536 32.4181 2.8237 32.6349C2.66503 32.7899 2.60735 33.0607 2.73982 33.2498C2.88564 33.4533 3.12014 33.5633 3.3397 33.6681C3.86053 33.9036 4.41395 34.0815 4.88668 34.4116C5.21416 34.6392 5.49245 34.9565 5.61478 35.3411C5.82686 36.0152 5.65379 36.8042 5.15165 37.3079C4.75636 37.7193 4.1864 37.9255 3.62442 37.9559C2.66182 38.0136 1.65704 37.6637 1 36.9452C1.27243 36.5729 1.54379 36.2006 1.81036 35.8245C2.17412 36.1856 2.63513 36.4613 3.14205 36.5564C3.40541 36.5975 3.69495 36.605 3.93478 36.4698C4.16448 36.3454 4.29001 36.0467 4.19974 35.7983C4.10091 35.5697 3.87069 35.4415 3.66129 35.3283C3.09077 35.0414 2.46526 34.8529 1.94655 34.4704C1.64368 34.2514 1.38781 33.9522 1.26976 33.5933C1.06195 32.9645 1.22756 32.2332 1.67948 31.7503ZM6.33219 31.1131C7.17567 31.1157 8.01859 31.112 8.86208 31.1147C9.4438 31.1205 10.0576 31.2856 10.4769 31.7087C11.1649 32.3972 11.0992 33.6723 10.3385 34.2824C10.7729 34.5046 11.0746 34.9399 11.1708 35.4137C11.2947 36.0099 11.1649 36.6771 10.7509 37.1365C10.2921 37.645 9.58534 37.8496 8.91815 37.8587C8.05706 37.8635 7.19542 37.8544 6.33432 37.8635C6.33112 35.6135 6.3354 33.363 6.33219 31.1131ZM7.76432 32.3796C7.76699 33.7856 7.7654 35.191 7.7654 36.5969C8.13132 36.5975 8.49776 36.5964 8.8642 36.598C9.03408 36.5991 9.21035 36.5788 9.36208 36.496C9.84496 36.2444 9.90104 35.4538 9.44647 35.1461C9.158 34.9309 8.78195 35.0062 8.44755 34.9901C8.45075 34.5761 8.44863 34.1617 8.44863 33.7471C8.7216 33.738 9.02661 33.7936 9.2654 33.6275C9.51699 33.4474 9.53568 33.0906 9.46464 32.8155C9.39359 32.5495 9.12276 32.386 8.85727 32.3818C8.49297 32.3743 8.12865 32.3796 7.76432 32.3796ZM11.8823 31.1131C12.3893 31.1163 12.8962 31.112 13.4031 31.1157C13.3925 33.3641 13.4005 35.6124 13.3989 37.8603C12.8941 37.863 12.3898 37.8549 11.885 37.8646C11.8802 35.6141 11.8861 33.3636 11.8823 31.1131Z" fill="#2E3180"/>
</svg>
