<svg width="38" height="38" viewBox="0 0 38 38" fill="none" xmlns="http://www.w3.org/2000/svg">
<path d="M25.5863 37.4411L9.65098 27.0673C9.65098 27.0673 7.65264 25.9182 7.19517 23.7778C6.55257 20.7725 8.67074 18.1958 8.67074 18.1958L29.3519 31.6645C30.9473 32.7042 31.3826 34.8314 30.3572 36.4358C29.3037 38.084 27.1389 38.4477 25.5856 37.4411H25.5863Z" fill="#38D200"/>
<path d="M10.4926 15.9728C10.4926 15.9728 8.05175 14.4989 8.05175 11.09C8.05175 7.69284 10.4916 6.23707 10.4916 6.23707L19.2033 0.535575C19.9699 0.0497669 20.8971 -0.114199 21.7839 0.0792428C22.6706 0.272685 23.4454 0.807935 23.94 1.56889C24.4347 2.32985 24.6094 3.25514 24.4262 4.14407C24.2431 5.033 23.7168 5.81387 22.9616 6.31731L15.6192 11.0983L28.1292 19.2459C28.1292 19.2459 30.3812 20.536 30.8247 22.7139C31.4441 25.7522 29.3526 28.2556 29.3526 28.2556L10.4926 15.9728ZM10.4464 37.9909C11.2641 37.9909 11.8463 37.7315 12.4142 37.3633L16.6669 34.5931L12.4142 31.8236C11.841 31.4544 11.2394 31.196 10.4464 31.196C9.99616 31.1895 9.54912 31.2726 9.13128 31.4405C8.71343 31.6083 8.33312 31.8576 8.01244 32.1737C7.69176 32.4898 7.43712 32.8665 7.26331 33.2819C7.08951 33.6973 7 34.1431 7 34.5934C7 35.0437 7.08951 35.4895 7.26331 35.905C7.43712 36.3204 7.69176 36.6971 8.01244 37.0132C8.33312 37.3293 8.71343 37.5785 9.13128 37.7464C9.54912 37.9142 9.99616 37.9974 10.4464 37.9909Z" fill="#0473EA"/>
<path d="M26.8899 7.70117C26.0719 7.70117 25.4897 7.96065 24.9218 8.3285L20.6688 11.0983L24.9218 13.8681C25.4949 14.2377 26.0969 14.4961 26.8899 14.4961C27.3361 14.4961 27.7779 14.4083 28.1901 14.2375C28.6023 14.0668 28.9768 13.8165 29.2923 13.501C29.6078 13.1856 29.858 12.811 30.0288 12.3988C30.1995 11.9866 30.2874 11.5448 30.2874 11.0987C30.2874 10.6525 30.1995 10.2107 30.0288 9.7985C29.858 9.38629 29.6078 9.01176 29.2923 8.69627C28.9768 8.38079 28.6023 8.13053 28.1901 7.95979C27.7779 7.78905 27.3361 7.70117 26.8899 7.70117Z" fill="#38D200"/>
</svg>
