<svg width="38" height="38" viewBox="0 0 38 38" fill="none" xmlns="http://www.w3.org/2000/svg">
<path d="M12.1543 26.5365C13.5456 26.5069 14.1267 24.5998 13.0491 23.6573C12.9057 23.5347 12.7624 23.4095 12.6139 23.2798C7.19134 18.5683 5.57859 19.6902 0.137247 21.7095C-0.0583872 21.7824 -0.0403194 22.0805 0.162382 22.1256C1.78615 22.4876 3.37376 23.6141 5.40808 25.9359L11.6029 26.5159C11.7876 26.5347 11.9722 26.5392 12.1543 26.5365ZM37.6552 3.06586L16.8647 25.3656C15.3456 26.9972 13.2299 27.8236 11.0864 27.6236L6.11252 27.1565L11.2846 32.5074C13.984 35.3022 18.3884 34.7926 20.4725 31.4469L37.9651 3.33687C38.0968 3.12074 37.8257 2.88142 37.6552 3.06586Z" fill="#D92438"/>
</svg>
